<svg xmlns:dc="http://purl.org/dc/elements/1.1/" xmlns:cc="http://creativecommons.org/ns#" xmlns:rdf="http://www.w3.org/1999/02/22-rdf-syntax-ns#" xmlns:svg="http://www.w3.org/2000/svg" xmlns="http://www.w3.org/2000/svg" xmlns:sodipodi="http://sodipodi.sourceforge.net/DTD/sodipodi-0.dtd" xmlns:inkscape="http://www.inkscape.org/namespaces/inkscape" version="1.1" x="0px" y="0px" viewBox="0 0 100 125"><g transform="translate(0,-952.36218)"><path d="m 49.241024,958.36595 c 4.137272,0.17121 8.223059,2.30283 10.843724,6.09374 2.606811,-0.48266 5.252811,-0.14063 7.500012,1.0625 2.390598,1.27988 4.276984,3.59458 5.0625,6.56249 2.373696,1.11476 3.943594,3.35246 4.281236,5.75001 0.362197,2.57205 -0.553146,5.29519 -2.593736,7.40625 l -7.406256,59.18746 c -0.13128,1.0513 -1.106646,1.9292 -2.156244,1.9375 l -30.093732,0 c -1.061043,0.01 -2.054834,-0.8748 -2.187531,-1.9375 l -7.374968,-59.31246 c -1.587331,-2.0317 -2.408173,-4.7019 -2.031272,-7.40626 0.358016,-2.56869 1.925752,-5.09102 4.625008,-6.75 0.132732,-2.10692 1.154799,-4.15598 2.875004,-5.5625 1.831252,-1.4974 4.472432,-2.1611 7.406255,-1.59374 2.633847,-3.49363 6.496902,-5.33867 10.37498,-5.43749 0.291331,-0.008 0.584256,-0.0121 0.87502,0 z m -0.187512,4.4375 c -3.156449,-0.13061 -6.278031,1.2949 -8.249988,4.65622 -0.50811,0.86992 -1.648063,1.29799 -2.593771,0.96878 -2.47213,-0.84788 -3.929528,-0.36681 -4.874988,0.40624 -0.945425,0.77308 -1.384406,1.97217 -1.218756,3.03126 0.153638,0.9647 -0.391464,2.0216 -1.28126,2.40623 -2.361508,1.05083 -3.189791,2.47843 -3.406252,4.03125 -0.174047,1.2487 0.216142,2.60557 0.87502,3.65627 l 24.906259,0 c 1.968449,0.0551 2.472661,0.87215 2.593736,2.65624 l 0,19.40626 c 0,1.0947 0.335374,1.6449 0.843732,2.0938 0.508394,0.4488 1.29554,0.7125 2.093776,0.7187 0.798236,0.01 1.565964,-0.2516 2.062488,-0.6875 0.496488,-0.4358 0.843768,-0.978 0.843768,-2.125 l 0,-19.31251 c -0.03607,-1.84535 0.884799,-2.65046 2.437476,-2.74999 l 7.281248,0 c 1.016575,-1.15519 1.367893,-2.47217 1.218756,-3.53126 -0.173977,-1.23545 -0.842386,-2.1268 -2.40626,-2.53127 -0.827787,-0.22135 -1.475008,-0.98762 -1.593744,-1.84372 -0.336012,-2.34376 -1.483122,-3.7794 -3.06248,-4.62501 -1.579394,-0.84554 -3.67767,-1.03585 -5.78126,-0.34374 -0.960732,0.31741 -2.106815,-0.13698 -2.593736,-1.03128 -1.794473,-3.37822 -4.937244,-5.11933 -8.093764,-5.24997 z m 20.718744,23.59374 -3.78124,0 0,17.62501 c 0,2.261 -0.895536,4.2251 -2.312504,5.4688 -1.417004,1.2437 -3.215622,1.7947 -4.968744,1.7812 -1.753016,-0.013 -3.532465,-0.6033 -4.937492,-1.8437 -1.405099,-1.2405 -2.343756,-3.1714 -2.343756,-5.4063 l 0,-17.62501 -21.718771,0 5.906267,47.68751 28.187504,0 5.968736,-47.68751 z" style="text-indent:0;text-transform:none;direction:ltr;block-progression:tb;baseline-shift:baseline;color:#000000;enable-background:accumulate;" fill="#000000" fill-opacity="1" fill-rule="evenodd" stroke="none" marker="none" visibility="visible" display="inline" overflow="visible"/></g><text x="0" y="115" fill="#000000" font-size="5px" font-weight="bold" font-family="'Helvetica Neue', Helvetica, Arial-Unicode, Arial, Sans-serif">Created by Danishicon</text><text x="0" y="120" fill="#000000" font-size="5px" font-weight="bold" font-family="'Helvetica Neue', Helvetica, Arial-Unicode, Arial, Sans-serif">from the Noun Project</text></svg>