<svg xmlns="http://www.w3.org/2000/svg" xmlns:xlink="http://www.w3.org/1999/xlink" version="1.1" x="0px" y="0px" viewBox="0 0 512 640" style="enable-background:new 0 0 512 512;" xml:space="preserve"><path d="M417.9,384.2h-57c-4.7,0-8.5-3.8-8.5-8.5V213.3c0-4.7,3.8-8.5,8.5-8.5h57c4.7,0,8.5,3.8,8.5,8.5v162.4  C426.4,380.4,422.6,384.2,417.9,384.2z M369.4,367.2h40V221.8h-40V367.2z"/><path d="M323,498.1H133c-25.6,0-46.5-20.9-46.5-46.5c0-4.7,3.8-8.5,8.5-8.5h266c4.7,0,8.5,3.8,8.5,8.5  C369.5,477.3,348.6,498.1,323,498.1z M104.7,460.1c3.7,12.1,14.9,21,28.3,21h190c13.3,0,24.6-8.9,28.3-21H104.7z"/><path d="M360.9,460.1H95c-4.7,0-8.5-3.8-8.5-8.5v-277c0-4.7,3.8-8.5,8.4-8.5c18.4-0.2,34.9-10.6,42.9-27.2c3-6.2,9.3-10.1,16.2-10.1  c6.6-0.1,12.9,2.5,17.6,7.1l0.2,0.2c7.5,7.2,17.3,11.1,27.8,11c10.4-0.2,20.1-4.4,27.4-11.9c4-4.1,9.5-6.4,15.2-6.4c0,0,0,0,0,0  c21,0,35.7,5.8,43.6,17.2c6.7,9.7,6.7,20.9,6.7,28.2v38.4c0,5.8,4.7,10.5,10.5,10.5s10.5-4.7,10.5-10.5v-80.2c0-3,1.5-5.7,4.1-7.2  s5.7-1.7,8.3-0.3c10.3,5.2,21.5,5.1,30.7-0.2c4-2.3,9.1-1,11.5,2.9l0.1,0.2c0.8,1.3,1.3,2.9,1.3,4.4v81.1c0,0.1,0,0.3,0,0.4v237.9  C369.4,456.3,365.6,460.1,360.9,460.1z M103.5,443.1h248.9V213.3c0-0.1,0-0.3,0-0.4v-68.4c-7.1,1.7-14.6,1.7-21.9,0.1v68.1  c0,15.2-12.3,27.5-27.5,27.5s-27.5-12.3-27.5-27.5v-38.4c0-5.9,0-13.2-3.7-18.6c-4.5-6.5-14.4-9.8-29.6-9.8c0,0,0,0,0,0  c-1.1,0-2.2,0.5-3,1.3c-21.5,22.2-57,22.8-79.2,1.3l-0.3-0.3c-1.5-1.5-3.5-2.3-5.6-2.3c-0.5,0-0.9,0.2-1,0.5  c-9.6,19.9-28.2,33.2-49.6,36.1V443.1z M360.9,213.3L360.9,213.3L360.9,213.3z"/><path d="M417.9,422.2h-57c-4.7,0-8.5-3.8-8.5-8.5v-38c0-4.7,3.8-8.5,8.5-8.5h48.5V221.8h-48.5c-4.7,0-8.5-3.8-8.5-8.5v-38  c0-4.7,3.8-8.5,8.5-8.5h57c25.6,0,46.5,20.9,46.5,46.5v162.4C464.4,401.3,443.6,422.2,417.9,422.2z M369.4,405.2h48.5  c16.3,0,29.5-13.2,29.5-29.5V213.3c0-16.3-13.2-29.5-29.5-29.5h-48.5v21h48.5c4.7,0,8.5,3.8,8.5,8.5v162.4c0,4.7-3.8,8.5-8.5,8.5  h-48.5V405.2z"/><path d="M75.6,278.1c-15.4,0-28-12.3-28-27.5v-114c0-24.1,10.4-47.2,28.7-63.2c16.9-14.9,39-22.3,61.5-21  c4.2-6.5,9.3-12.4,15.1-17.6c33.1-29.2,82.9-27.5,114,2.6c5.6-2.4,11.7-3.7,17.9-3.7c0.1,0,0.2,0,0.2,0c16.4,0,31.3,8.7,39.6,22.3  c8.7-3.5,18.3-4.3,27.5-2.2c12.7,2.8,23.7,11,30.2,22.3c12.6,22.2,4.9,50.5-17.3,63.2c-10.6,6.1-22.7,7.8-34.5,5.1v68.1  c0,15.2-12.3,27.5-27.5,27.5s-27.5-12.3-27.5-27.5v-38.4c0-5.9,0-13.2-3.7-18.6c-4.5-6.5-14.4-9.8-29.6-9.8c0,0,0,0,0,0  c-1.1,0-2.2,0.5-3,1.3l-0.3,0.3c-10.5,10.6-24.5,16.6-39.4,16.7c-0.2,0-0.3,0-0.5,0c-14.8,0-28.7-5.7-39.2-16  c-1.5-1.5-3.5-2.3-5.7-2.3c-0.4,0-0.8,0.2-0.9,0.5c-9.6,19.9-28.2,33.2-49.6,36.2v67.9c0,0.1,0,0.2,0,0.4  C102.9,266.1,90.6,278.1,75.6,278.1z M132.4,69.3c-16.5,0-32.5,5.9-44.9,16.9C72.9,99,64.6,117.4,64.6,136.6v114  c0,5.7,5,10.5,11,10.5c5.8,0,10.6-4.8,11-10.9v-75.6c0-4.7,3.8-8.5,8.4-8.5c18.4-0.2,34.9-10.6,42.9-27.2c0,0,0,0,0,0  c3-6.1,9.3-10.1,16.1-10.1c6.6-0.1,12.9,2.5,17.6,7.1c7.4,7.2,17,11.2,27.3,11.2c0.1,0,0.2,0,0.4,0c10.4-0.1,20.2-4.2,27.5-11.7  l0.2-0.2c4-4.1,9.5-6.4,15.2-6.4c0,0,0,0,0,0c21,0,35.7,5.8,43.6,17.2c6.7,9.7,6.7,20.9,6.7,28.2v38.4c0,5.8,4.7,10.5,10.5,10.5  s10.5-4.7,10.5-10.5v-80.2c0-3,1.5-5.7,4.1-7.2c2.5-1.5,5.7-1.7,8.3-0.3c10.3,5.2,21.5,5.1,30.8-0.2c6.8-3.9,11.7-10.2,13.8-17.7  c2.1-7.6,1.1-15.5-2.8-22.3c-4.1-7.2-11.1-12.3-19.1-14.1c-7.9-1.8-16.2-0.2-23,4.3c-2.2,1.5-4.9,1.8-7.4,1  c-2.5-0.8-4.5-2.8-5.3-5.2c-4.1-11.8-15.3-19.7-27.8-19.7c-5.4,0-10.7,1.5-15.3,4.4c-3.5,2.2-8.1,1.6-10.9-1.6  c-24.5-27.7-66.9-30.4-94.7-6c-5.8,5.1-10.6,11.1-14.4,17.9c-1.7,3.1-5.1,4.8-8.5,4.3C138.3,69.5,135.4,69.3,132.4,69.3z M95,250.4  L95,250.4L95,250.4z"/><path d="M303,421.5c-4.7,0-8.5-3.8-8.5-8.5V231.6c0-4.7,3.8-8.5,8.5-8.5s8.5,3.8,8.5,8.5V413C311.5,417.7,307.7,421.5,303,421.5z"/><path d="M228,421.5c-4.7,0-8.5-3.8-8.5-8.5V219.8c0-4.7,3.8-8.5,8.5-8.5s8.5,3.8,8.5,8.5V413C236.5,417.7,232.7,421.5,228,421.5z"/><path d="M153,421.5c-4.7,0-8.5-3.8-8.5-8.5V219.8c0-4.7,3.8-8.5,8.5-8.5s8.5,3.8,8.5,8.5V413C161.5,417.7,157.7,421.5,153,421.5z"/><text x="0" y="527" fill="#000000" font-size="5px" font-weight="bold" font-family="'Helvetica Neue', Helvetica, Arial-Unicode, Arial, Sans-serif">Created by Hannarae Koh</text><text x="0" y="532" fill="#000000" font-size="5px" font-weight="bold" font-family="'Helvetica Neue', Helvetica, Arial-Unicode, Arial, Sans-serif">from the Noun Project</text></svg>